<?xml version="1.0" encoding="UTF-8" standalone="no"?>
<svg width="37px" height="37px" viewBox="0 0 37 37" version="1.1" xmlns="http://www.w3.org/2000/svg" xmlns:xlink="http://www.w3.org/1999/xlink">
    <!-- Generator: Sketch 3.6.1 (26313) - http://www.bohemiancoding.com/sketch -->
    <title>module-extensionmanager</title>
    <desc>Created with Sketch.</desc>
    <defs></defs>
    <g id="Page-1" stroke="none" stroke-width="1" fill="none" fill-rule="evenodd">
        <g id="module-extensionmanager" fill="#FF8700">
            <path d="M3.89289007,0 C1.75180053,0 0,1.79761937 0,3.99470971 L0,16.4592027 L11.9716102,16.4592027 L14.5876323,9.59129801 C14.8864116,8.80733623 15.6523378,8.29401603 16.4503802,8.321979 C17.2698336,8.3439499 17.989045,8.89022646 18.2479222,9.68816972 L21.9490875,21.1100435 L25.9431927,11.3599557 C26.2371059,10.643904 26.9086294,10.1675349 27.6657965,10.1385732 C28.446321,10.1046182 29.1275767,10.5340495 29.4711243,11.226133 L32.0754678,16.4602014 L33.7211607,16.4602014 C34.7955984,16.4602014 35.6676058,17.3550163 35.6676058,18.4575562 C35.6676058,19.5600961 34.7955984,20.4549111 33.7211607,20.4549111 L30.8832702,20.4549111 C30.1514068,20.4549111 29.482803,20.0344679 29.1499609,19.3663527 L27.9091022,16.8706578 L23.530574,27.5565062 C23.2259554,28.2995223 22.5174494,28.7798861 21.7369249,28.7798861 C20.8503192,28.7469297 20.1447329,28.2026505 19.8887754,27.4126967 L16.2528161,16.1925558 L15.1141457,19.1835947 C14.822179,19.9495803 14.1029675,20.4539124 13.3010322,20.4539124 L0,20.4539124 L0,33.0052903 C0,35.2023806 1.75180053,37 3.89289007,37 L33.1071099,37 C35.2481995,37 37,35.2023806 37,33.0052903 L37,3.99371103 C37,1.79761937 35.2481995,0 33.1071099,0 L3.89289007,0 Z" id="Shape"></path>
        </g>
    </g>
</svg>